<svg xmlns="http://www.w3.org/2000/svg" width="21.184" height="21.184" viewBox="0 0 21.184 21.184">
  <path id="Path_76563" data-name="Path 76563" d="M156.149,138.461a4.278,4.278,0,0,0-2.452-2.452,7.148,7.148,0,0,0-2.4-.445c-1.363-.062-1.771-.076-5.221-.076s-3.859.013-5.221.075a7.153,7.153,0,0,0-2.4.445A4.28,4.28,0,0,0,136,138.461a7.151,7.151,0,0,0-.445,2.4c-.062,1.362-.076,1.771-.076,5.221s.013,3.858.076,5.221a7.149,7.149,0,0,0,.445,2.4,4.279,4.279,0,0,0,2.452,2.452,7.139,7.139,0,0,0,2.4.445c1.362.062,1.771.075,5.221.075s3.859-.013,5.221-.075a7.14,7.14,0,0,0,2.4-.445,4.278,4.278,0,0,0,2.452-2.452,7.154,7.154,0,0,0,.445-2.4c.062-1.363.075-1.771.075-5.221s-.013-3.859-.075-5.221A7.139,7.139,0,0,0,156.149,138.461Zm-10.072,14.254a6.634,6.634,0,1,1,6.634-6.634A6.634,6.634,0,0,1,146.077,152.715Zm6.9-11.981a1.55,1.55,0,1,1,1.55-1.55A1.551,1.551,0,0,1,152.974,140.734Zm0,0" transform="translate(-135.485 -135.489)"/>
</svg>
